<svg width="52.5" height="24" viewBox="0 0 52.5 24" fill="none" xmlns="http://www.w3.org/2000/svg">
<path d="M36.5322 15.1165L36.613 15.2L36.641 15.2298C40.0928 18.9109 44.3641 23.466 52.5 23.4998V14.5C47.6609 14.5 45.3783 12.1 42.2739 8.8L42.2459 8.77015C38.7813 5.07531 34.491 0.5 26.2957 0.5C18.009 0.5 13.7185 5.07559 10.2538 8.77049L10.2261 8.8C7.12174 12.1 4.93044 14.5 0 14.5V23.5C8.21739 23.5 12.5087 18.9 16.0696 15.2C19.1739 11.9 21.3652 9.5 26.2957 9.5C31.0939 9.5 33.3786 11.8596 36.5322 15.1165Z" fill="#F1F1F1"/>
</svg>
